<svg width="387" height="261" viewBox="0 0 387 261" fill="none" xmlns="http://www.w3.org/2000/svg">
<mask id="mask0_84_42" style="mask-type:luminance" maskUnits="userSpaceOnUse" x="0" y="0" width="22" height="31">
<path d="M21.3857 0H0V30.6986H21.3857V0Z" fill="white"/>
</mask>
<g mask="url(#mask0_84_42)">
<path d="M18.7586 7.60261H17.2298V5.21498H18.317C18.723 5.21498 19.0523 4.88565 19.0523 4.47961V0.73537C19.0523 0.329327 18.723 0 18.317 0H3.06687C2.66082 0 2.33149 0.329327 2.33149 0.73537V4.47961C2.33149 4.88565 2.66082 5.21498 3.06687 5.21498H4.15402V7.60261H2.62714C1.1751 7.60261 0 8.77958 0 10.2297V28.0714C0 29.5235 1.17697 30.6986 2.62714 30.6986H18.7567C20.2069 30.6986 21.3838 29.5216 21.3838 28.0714V10.2297C21.3838 8.77958 20.2069 7.60261 18.7567 7.60261H18.7586ZM15.4428 19.3293C15.4428 19.9299 14.9563 20.4146 14.3576 20.4146H12.4901V22.282C12.4901 22.8808 12.0036 23.3673 11.4048 23.3673H9.98272C9.3821 23.3673 8.89747 22.8808 8.89747 22.282V20.4146H7.03003C6.43125 20.4146 5.94474 19.9281 5.94474 19.3293V17.9072C5.94474 17.3084 6.43125 16.8219 7.03003 16.8219H8.89747V14.9544C8.89747 14.3557 9.38397 13.8692 9.98272 13.8692H11.4048C12.0055 13.8692 12.4901 14.3557 12.4901 14.9544V16.8219H14.3576C14.9563 16.8219 15.4428 17.3084 15.4428 17.9072V19.3293Z" fill="#83CD20"/>
</g>
<mask id="mask1_84_42" style="mask-type:luminance" maskUnits="userSpaceOnUse" x="0" y="45" width="22" height="32">
<path d="M21.3857 45.6992H0V76.3978H21.3857V45.6992Z" fill="white"/>
</mask>
<g mask="url(#mask1_84_42)">
<path d="M18.7586 53.3018H17.2298V50.9142H18.317C18.723 50.9142 19.0523 50.5849 19.0523 50.1788V46.4346C19.0523 46.0285 18.723 45.6992 18.317 45.6992H3.06687C2.66082 45.6992 2.33149 46.0285 2.33149 46.4346V50.1788C2.33149 50.5849 2.66082 50.9142 3.06687 50.9142H4.15402V53.3018H2.62714C1.1751 53.3018 0 54.4788 0 55.9289V73.7706C0 75.2227 1.17697 76.3979 2.62714 76.3979H18.7567C20.2069 76.3979 21.3838 75.2208 21.3838 73.7706V55.9289C21.3838 54.4788 20.2069 53.3018 18.7567 53.3018H18.7586ZM15.4428 65.0285C15.4428 65.6291 14.9563 66.1138 14.3576 66.1138H12.4901V67.9812C12.4901 68.58 12.0036 69.0665 11.4048 69.0665H9.98272C9.3821 69.0665 8.89747 68.58 8.89747 67.9812V66.1138H7.03003C6.43125 66.1138 5.94474 65.6273 5.94474 65.0285V63.6064C5.94474 63.0076 6.43125 62.5211 7.03003 62.5211H8.89747V60.6536C8.89747 60.0549 9.38397 59.5684 9.98272 59.5684H11.4048C12.0055 59.5684 12.4901 60.0549 12.4901 60.6536V62.5211H14.3576C14.9563 62.5211 15.4428 63.0076 15.4428 63.6064V65.0285Z" fill="#FFAE00"/>
</g>
<mask id="mask2_84_42" style="mask-type:luminance" maskUnits="userSpaceOnUse" x="0" y="91" width="22" height="32">
<path d="M21.3857 91.3965H0V122.095H21.3857V91.3965Z" fill="white"/>
</mask>
<g mask="url(#mask2_84_42)">
<path d="M18.7586 98.9991H17.2298V96.6115H18.317C18.723 96.6115 19.0523 96.2821 19.0523 95.8761V92.1319C19.0523 91.7258 18.723 91.3965 18.317 91.3965H3.06687C2.66082 91.3965 2.33149 91.7258 2.33149 92.1319V95.8761C2.33149 96.2821 2.66082 96.6115 3.06687 96.6115H4.15402V98.9991H2.62714C1.1751 98.9991 0 100.176 0 101.626V119.468C0 120.92 1.17697 122.095 2.62714 122.095H18.7567C20.2069 122.095 21.3838 120.918 21.3838 119.468V101.626C21.3838 100.176 20.2069 98.9991 18.7567 98.9991H18.7586ZM15.4428 110.726C15.4428 111.326 14.9563 111.811 14.3576 111.811H12.4901V113.679C12.4901 114.277 12.0036 114.764 11.4048 114.764H9.98272C9.3821 114.764 8.89747 114.277 8.89747 113.679V111.811H7.03003C6.43125 111.811 5.94474 111.325 5.94474 110.726V109.304C5.94474 108.705 6.43125 108.218 7.03003 108.218H8.89747V106.351C8.89747 105.752 9.38397 105.266 9.98272 105.266H11.4048C12.0055 105.266 12.4901 105.752 12.4901 106.351V108.218H14.3576C14.9563 108.218 15.4428 108.705 15.4428 109.304V110.726Z" fill="#3AD4FF"/>
</g>
<mask id="mask3_84_42" style="mask-type:luminance" maskUnits="userSpaceOnUse" x="0" y="137" width="22" height="31">
<path d="M21.3857 137.096H0V167.794H21.3857V137.096Z" fill="white"/>
</mask>
<g mask="url(#mask3_84_42)">
<path d="M18.7586 144.698H17.2298V142.311H18.317C18.723 142.311 19.0523 141.981 19.0523 141.575V137.831C19.0523 137.425 18.723 137.096 18.317 137.096H3.06687C2.66082 137.096 2.33149 137.425 2.33149 137.831V141.575C2.33149 141.981 2.66082 142.311 3.06687 142.311H4.15402V144.698H2.62714C1.1751 144.698 0 145.875 0 147.325V165.167C0 166.619 1.17697 167.794 2.62714 167.794H18.7567C20.2069 167.794 21.3838 166.617 21.3838 165.167V147.325C21.3838 145.875 20.2069 144.698 18.7567 144.698H18.7586ZM15.4428 156.425C15.4428 157.026 14.9563 157.51 14.3576 157.51H12.4901V159.378C12.4901 159.977 12.0036 160.463 11.4048 160.463H9.98272C9.3821 160.463 8.89747 159.977 8.89747 159.378V157.51H7.03003C6.43125 157.51 5.94474 157.024 5.94474 156.425V155.003C5.94474 154.404 6.43125 153.918 7.03003 153.918H8.89747V152.05C8.89747 151.451 9.38397 150.965 9.98272 150.965H11.4048C12.0055 150.965 12.4901 151.451 12.4901 152.05V153.918H14.3576C14.9563 153.918 15.4428 154.404 15.4428 155.003V156.425Z" fill="#EB7F64"/>
</g>
<mask id="mask4_84_42" style="mask-type:luminance" maskUnits="userSpaceOnUse" x="0" y="182" width="22" height="32">
<path d="M21.3857 182.795H0V213.494H21.3857V182.795Z" fill="white"/>
</mask>
<g mask="url(#mask4_84_42)">
<path d="M18.7586 190.398H17.2298V188.01H18.317C18.723 188.01 19.0523 187.681 19.0523 187.275V183.53C19.0523 183.124 18.723 182.795 18.317 182.795H3.06687C2.66082 182.795 2.33149 183.124 2.33149 183.53V187.275C2.33149 187.681 2.66082 188.01 3.06687 188.01H4.15402V190.398H2.62714C1.1751 190.398 0 191.575 0 193.025V210.866C0 212.318 1.17697 213.494 2.62714 213.494H18.7567C20.2069 213.494 21.3838 212.317 21.3838 210.866V193.025C21.3838 191.575 20.2069 190.398 18.7567 190.398H18.7586ZM15.4428 202.124C15.4428 202.725 14.9563 203.21 14.3576 203.21H12.4901V205.077C12.4901 205.676 12.0036 206.162 11.4048 206.162H9.98272C9.3821 206.162 8.89747 205.676 8.89747 205.077V203.21H7.03003C6.43125 203.21 5.94474 202.723 5.94474 202.124V200.702C5.94474 200.103 6.43125 199.617 7.03003 199.617H8.89747V197.749C8.89747 197.151 9.38397 196.664 9.98272 196.664H11.4048C12.0055 196.664 12.4901 197.151 12.4901 197.749V199.617H14.3576C14.9563 199.617 15.4428 200.103 15.4428 200.702V202.124Z" fill="#E0BF05"/>
</g>
<mask id="mask5_84_42" style="mask-type:luminance" maskUnits="userSpaceOnUse" x="0" y="228" width="22" height="32">
<path d="M21.3857 228.492H0V259.191H21.3857V228.492Z" fill="white"/>
</mask>
<g mask="url(#mask5_84_42)">
<path d="M18.7586 236.095H17.2298V233.707H18.317C18.723 233.707 19.0523 233.378 19.0523 232.972V229.228C19.0523 228.822 18.723 228.492 18.317 228.492H3.06687C2.66082 228.492 2.33149 228.822 2.33149 229.228V232.972C2.33149 233.378 2.66082 233.707 3.06687 233.707H4.15402V236.095H2.62714C1.1751 236.095 0 237.272 0 238.722V256.564C0 258.016 1.17697 259.191 2.62714 259.191H18.7567C20.2069 259.191 21.3838 258.014 21.3838 256.564V238.722C21.3838 237.272 20.2069 236.095 18.7567 236.095H18.7586ZM15.4428 247.822C15.4428 248.422 14.9563 248.907 14.3576 248.907H12.4901V250.774C12.4901 251.373 12.0036 251.86 11.4048 251.86H9.98272C9.3821 251.86 8.89747 251.373 8.89747 250.774V248.907H7.03003C6.43125 248.907 5.94474 248.42 5.94474 247.822V246.399C5.94474 245.801 6.43125 245.314 7.03003 245.314H8.89747V243.447C8.89747 242.848 9.38397 242.361 9.98272 242.361H11.4048C12.0055 242.361 12.4901 242.848 12.4901 243.447V245.314H14.3576C14.9563 245.314 15.4428 245.801 15.4428 246.399V247.822Z" fill="#034833"/>
</g>
<path d="M37.33 28L45.04 5.65H50.32L58.03 28H53.59L52 23.2H43.36L41.74 28H37.33ZM44.53 19.6H50.83L47.11 8.47H48.25L44.53 19.6ZM60.5174 28V5.65H63.6974L75.9974 22.21L74.3474 22.54V5.65H78.4274V28H75.2174L63.0974 11.32L64.5974 10.99V28H60.5174ZM86.7138 28V9.25H80.9238V5.65H96.5238V9.25H90.8238V28H86.7138ZM99.0135 28V5.65H103.094V28H99.0135ZM107.392 28V5.65H114.682C117.042 5.65 119.092 6.13 120.832 7.09C122.592 8.03 123.952 9.34 124.912 11.02C125.872 12.68 126.352 14.61 126.352 16.81C126.352 18.99 125.872 20.93 124.912 22.63C123.952 24.31 122.592 25.63 120.832 26.59C119.092 27.53 117.042 28 114.682 28H107.392ZM111.472 24.4H114.772C116.292 24.4 117.602 24.09 118.702 23.47C119.822 22.83 120.692 21.95 121.312 20.83C121.932 19.69 122.242 18.35 122.242 16.81C122.242 15.25 121.932 13.91 121.312 12.79C120.692 11.67 119.822 10.8 118.702 10.18C117.602 9.56 116.292 9.25 114.772 9.25H111.472V24.4ZM129.599 28V5.65H144.449V9.25H133.679V14.98H143.849V18.58H133.679V24.4H144.449V28H129.599ZM147.441 28V5.65H155.781C157.301 5.65 158.641 5.93 159.801 6.49C160.981 7.03 161.901 7.83 162.561 8.89C163.221 9.93 163.551 11.2 163.551 12.7C163.551 14.18 163.211 15.45 162.531 16.51C161.871 17.55 160.961 18.35 159.801 18.91C158.641 19.47 157.301 19.75 155.781 19.75H151.521V28H147.441ZM151.521 16.15H155.841C156.581 16.15 157.221 16.01 157.761 15.73C158.301 15.43 158.721 15.02 159.021 14.5C159.321 13.98 159.471 13.38 159.471 12.7C159.471 12 159.321 11.4 159.021 10.9C158.721 10.38 158.301 9.98 157.761 9.7C157.221 9.4 156.581 9.25 155.841 9.25H151.521V16.15ZM166.894 28V5.65H175.204C176.724 5.65 178.064 5.93 179.224 6.49C180.404 7.03 181.324 7.83 181.984 8.89C182.644 9.93 182.974 11.2 182.974 12.7C182.974 14.24 182.604 15.55 181.864 16.63C181.144 17.71 180.164 18.51 178.924 19.03L184.054 28H179.434L173.944 18.19L176.584 19.75H170.974V28H166.894ZM170.974 16.15H175.264C176.004 16.15 176.644 16.01 177.184 15.73C177.724 15.43 178.144 15.02 178.444 14.5C178.744 13.98 178.894 13.38 178.894 12.7C178.894 12 178.744 11.4 178.444 10.9C178.144 10.38 177.724 9.98 177.184 9.7C176.644 9.4 176.004 9.25 175.264 9.25H170.974V16.15ZM186.728 28V5.65H201.578V9.25H190.808V14.98H200.978V18.58H190.808V24.4H201.578V28H186.728ZM212.55 28.36C211.13 28.36 209.81 28.1 208.59 27.58C207.39 27.06 206.35 26.34 205.47 25.42C204.61 24.48 203.98 23.39 203.58 22.15L206.97 20.68C207.51 21.96 208.29 22.97 209.31 23.71C210.33 24.43 211.48 24.79 212.76 24.79C213.48 24.79 214.1 24.68 214.62 24.46C215.16 24.22 215.57 23.9 215.85 23.5C216.15 23.1 216.3 22.62 216.3 22.06C216.3 21.4 216.1 20.86 215.7 20.44C215.32 20 214.74 19.66 213.96 19.42L209.67 18.04C207.93 17.5 206.62 16.69 205.74 15.61C204.86 14.53 204.42 13.26 204.42 11.8C204.42 10.52 204.73 9.39 205.35 8.41C205.99 7.43 206.87 6.67 207.99 6.13C209.13 5.57 210.43 5.29 211.89 5.29C213.23 5.29 214.46 5.53 215.58 6.01C216.7 6.47 217.66 7.12 218.46 7.96C219.28 8.78 219.89 9.75 220.29 10.87L216.93 12.37C216.49 11.25 215.83 10.39 214.95 9.79C214.07 9.17 213.05 8.86 211.89 8.86C211.21 8.86 210.61 8.98 210.09 9.22C209.57 9.44 209.16 9.76 208.86 10.18C208.58 10.58 208.44 11.06 208.44 11.62C208.44 12.24 208.64 12.79 209.04 13.27C209.44 13.73 210.05 14.09 210.87 14.35L214.98 15.64C216.76 16.22 218.09 17.02 218.97 18.04C219.87 19.06 220.32 20.32 220.32 21.82C220.32 23.1 219.99 24.23 219.33 25.21C218.67 26.19 217.76 26.96 216.6 27.52C215.44 28.08 214.09 28.36 212.55 28.36ZM231.974 28.36C230.554 28.36 229.234 28.1 228.014 27.58C226.814 27.06 225.774 26.34 224.894 25.42C224.034 24.48 223.404 23.39 223.004 22.15L226.394 20.68C226.934 21.96 227.714 22.97 228.734 23.71C229.754 24.43 230.904 24.79 232.184 24.79C232.904 24.79 233.524 24.68 234.044 24.46C234.584 24.22 234.994 23.9 235.274 23.5C235.574 23.1 235.724 22.62 235.724 22.06C235.724 21.4 235.524 20.86 235.124 20.44C234.744 20 234.164 19.66 233.384 19.42L229.094 18.04C227.354 17.5 226.044 16.69 225.164 15.61C224.284 14.53 223.844 13.26 223.844 11.8C223.844 10.52 224.154 9.39 224.774 8.41C225.414 7.43 226.294 6.67 227.414 6.13C228.554 5.57 229.854 5.29 231.314 5.29C232.654 5.29 233.884 5.53 235.004 6.01C236.124 6.47 237.084 7.12 237.884 7.96C238.704 8.78 239.314 9.75 239.714 10.87L236.354 12.37C235.914 11.25 235.254 10.39 234.374 9.79C233.494 9.17 232.474 8.86 231.314 8.86C230.634 8.86 230.034 8.98 229.514 9.22C228.994 9.44 228.584 9.76 228.284 10.18C228.004 10.58 227.864 11.06 227.864 11.62C227.864 12.24 228.064 12.79 228.464 13.27C228.864 13.73 229.474 14.09 230.294 14.35L234.404 15.64C236.184 16.22 237.514 17.02 238.394 18.04C239.294 19.06 239.744 20.32 239.744 21.82C239.744 23.1 239.414 24.23 238.754 25.21C238.094 26.19 237.184 26.96 236.024 27.52C234.864 28.08 233.514 28.36 231.974 28.36ZM243.418 28V5.65H247.498V28H243.418ZM257.767 28L249.967 5.65H254.407L260.527 24.16H259.657L265.777 5.65H270.217L262.447 28H257.767ZM283.139 28.36C281.499 28.36 279.969 28.07 278.549 27.49C277.129 26.91 275.889 26.1 274.829 25.06C273.769 24.02 272.939 22.8 272.339 21.4C271.759 19.98 271.469 18.45 271.469 16.81C271.469 15.15 271.759 13.62 272.339 12.22C272.919 10.82 273.739 9.6 274.799 8.56C275.859 7.52 277.099 6.72 278.519 6.16C279.939 5.58 281.479 5.29 283.139 5.29C284.799 5.29 286.339 5.58 287.759 6.16C289.179 6.74 290.419 7.55 291.479 8.59C292.539 9.61 293.359 10.82 293.939 12.22C294.539 13.62 294.839 15.15 294.839 16.81C294.839 18.45 294.539 19.98 293.939 21.4C293.339 22.8 292.509 24.02 291.449 25.06C290.389 26.1 289.149 26.91 287.729 27.49C286.329 28.07 284.799 28.36 283.139 28.36ZM283.139 24.64C284.239 24.64 285.249 24.45 286.169 24.07C287.089 23.67 287.889 23.12 288.569 22.42C289.269 21.72 289.799 20.89 290.159 19.93C290.539 18.97 290.729 17.93 290.729 16.81C290.729 15.69 290.539 14.66 290.159 13.72C289.799 12.76 289.269 11.93 288.569 11.23C287.889 10.51 287.089 9.96 286.169 9.58C285.249 9.2 284.239 9.01 283.139 9.01C282.059 9.01 281.059 9.2 280.139 9.58C279.219 9.96 278.409 10.51 277.709 11.23C277.029 11.93 276.499 12.76 276.119 13.72C275.739 14.66 275.549 15.69 275.549 16.81C275.549 17.93 275.739 18.97 276.119 19.93C276.499 20.89 277.029 21.72 277.709 22.42C278.409 23.12 279.219 23.67 280.139 24.07C281.059 24.45 282.059 24.64 283.139 24.64Z" fill="#83CD20"/>
<path d="M37.33 74L45.04 51.65H50.32L58.03 74H53.59L52 69.2H43.36L41.74 74H37.33ZM44.53 65.6H50.83L47.11 54.47H48.25L44.53 65.6ZM60.5174 74V51.65H63.6974L75.9974 68.21L74.3474 68.54V51.65H78.4274V74H75.2174L63.0974 57.32L64.5974 56.99V74H60.5174ZM86.7138 74V55.25H80.9238V51.65H96.5238V55.25H90.8238V74H86.7138ZM99.0135 74V51.65H103.094V74H99.0135ZM117.892 74.36C116.292 74.36 114.812 74.07 113.452 73.49C112.112 72.91 110.932 72.1 109.912 71.06C108.912 70.02 108.132 68.8 107.572 67.4C107.012 66 106.732 64.47 106.732 62.81C106.732 61.15 107.002 59.62 107.542 58.22C108.102 56.8 108.882 55.58 109.882 54.56C110.902 53.52 112.092 52.72 113.452 52.16C114.812 51.58 116.292 51.29 117.892 51.29C119.492 51.29 120.922 51.56 122.182 52.1C123.462 52.64 124.542 53.36 125.422 54.26C126.302 55.14 126.932 56.11 127.312 57.17L123.652 58.88C123.232 57.76 122.522 56.84 121.522 56.12C120.522 55.38 119.312 55.01 117.892 55.01C116.492 55.01 115.252 55.34 114.172 56C113.112 56.66 112.282 57.57 111.682 58.73C111.102 59.89 110.812 61.25 110.812 62.81C110.812 64.37 111.102 65.74 111.682 66.92C112.282 68.08 113.112 68.99 114.172 69.65C115.252 70.31 116.492 70.64 117.892 70.64C119.312 70.64 120.522 70.28 121.522 69.56C122.522 68.82 123.232 67.89 123.652 66.77L127.312 68.48C126.932 69.54 126.302 70.52 125.422 71.42C124.542 72.3 123.462 73.01 122.182 73.55C120.922 74.09 119.492 74.36 117.892 74.36ZM141.635 74.36C139.995 74.36 138.465 74.07 137.045 73.49C135.625 72.91 134.385 72.1 133.325 71.06C132.265 70.02 131.435 68.8 130.835 67.4C130.255 65.98 129.965 64.45 129.965 62.81C129.965 61.15 130.255 59.62 130.835 58.22C131.415 56.82 132.235 55.6 133.295 54.56C134.355 53.52 135.595 52.72 137.015 52.16C138.435 51.58 139.975 51.29 141.635 51.29C143.295 51.29 144.835 51.58 146.255 52.16C147.675 52.74 148.915 53.55 149.975 54.59C151.035 55.61 151.855 56.82 152.435 58.22C153.035 59.62 153.335 61.15 153.335 62.81C153.335 64.45 153.035 65.98 152.435 67.4C151.835 68.8 151.005 70.02 149.945 71.06C148.885 72.1 147.645 72.91 146.225 73.49C144.825 74.07 143.295 74.36 141.635 74.36ZM141.635 70.64C142.735 70.64 143.745 70.45 144.665 70.07C145.585 69.67 146.385 69.12 147.065 68.42C147.765 67.72 148.295 66.89 148.655 65.93C149.035 64.97 149.225 63.93 149.225 62.81C149.225 61.69 149.035 60.66 148.655 59.72C148.295 58.76 147.765 57.93 147.065 57.23C146.385 56.51 145.585 55.96 144.665 55.58C143.745 55.2 142.735 55.01 141.635 55.01C140.555 55.01 139.555 55.2 138.635 55.58C137.715 55.96 136.905 56.51 136.205 57.23C135.525 57.93 134.995 58.76 134.615 59.72C134.235 60.66 134.045 61.69 134.045 62.81C134.045 63.93 134.235 64.97 134.615 65.93C134.995 66.89 135.525 67.72 136.205 68.42C136.905 69.12 137.715 69.67 138.635 70.07C139.555 70.45 140.555 70.64 141.635 70.64ZM156.963 74V51.65H160.143L172.443 68.21L170.793 68.54V51.65H174.873V74H171.663L159.543 57.32L161.043 56.99V74H156.963ZM185.169 74L177.369 51.65H181.809L187.929 70.16H187.059L193.179 51.65H197.619L189.849 74H185.169ZM208.727 74.36C207.007 74.36 205.477 74 204.137 73.28C202.817 72.56 201.777 71.57 201.017 70.31C200.257 69.05 199.877 67.62 199.877 66.02V51.65H203.957V65.81C203.957 66.73 204.157 67.56 204.557 68.3C204.977 69.04 205.547 69.62 206.267 70.04C206.987 70.44 207.807 70.64 208.727 70.64C209.667 70.64 210.487 70.44 211.187 70.04C211.907 69.62 212.467 69.04 212.867 68.3C213.287 67.56 213.497 66.73 213.497 65.81V51.65H217.577V66.02C217.577 67.62 217.197 69.05 216.437 70.31C215.677 71.57 214.627 72.56 213.287 73.28C211.967 74 210.447 74.36 208.727 74.36ZM221.65 74V51.65H225.73V70.4H235.3V74H221.65ZM245.919 74.36C244.499 74.36 243.179 74.1 241.959 73.58C240.759 73.06 239.719 72.34 238.839 71.42C237.979 70.48 237.349 69.39 236.949 68.15L240.339 66.68C240.879 67.96 241.659 68.97 242.679 69.71C243.699 70.43 244.849 70.79 246.129 70.79C246.849 70.79 247.469 70.68 247.989 70.46C248.529 70.22 248.939 69.9 249.219 69.5C249.519 69.1 249.669 68.62 249.669 68.06C249.669 67.4 249.469 66.86 249.069 66.44C248.689 66 248.109 65.66 247.329 65.42L243.039 64.04C241.299 63.5 239.989 62.69 239.109 61.61C238.229 60.53 237.789 59.26 237.789 57.8C237.789 56.52 238.099 55.39 238.719 54.41C239.359 53.43 240.239 52.67 241.359 52.13C242.499 51.57 243.799 51.29 245.259 51.29C246.599 51.29 247.829 51.53 248.949 52.01C250.069 52.47 251.029 53.12 251.829 53.96C252.649 54.78 253.259 55.75 253.659 56.87L250.299 58.37C249.859 57.25 249.199 56.39 248.319 55.79C247.439 55.17 246.419 54.86 245.259 54.86C244.579 54.86 243.979 54.98 243.459 55.22C242.939 55.44 242.529 55.76 242.229 56.18C241.949 56.58 241.809 57.06 241.809 57.62C241.809 58.24 242.009 58.79 242.409 59.27C242.809 59.73 243.419 60.09 244.239 60.35L248.349 61.64C250.129 62.22 251.459 63.02 252.339 64.04C253.239 65.06 253.689 66.32 253.689 67.82C253.689 69.1 253.359 70.23 252.699 71.21C252.039 72.19 251.129 72.96 249.969 73.52C248.809 74.08 247.459 74.36 245.919 74.36ZM257.363 74V51.65H261.443V74H257.363ZM271.712 74L263.912 51.65H268.352L274.472 70.16H273.602L279.722 51.65H284.162L276.392 74H271.712ZM283.482 74L291.192 51.65H296.472L304.182 74H299.742L298.152 69.2H289.512L287.892 74H283.482ZM290.682 65.6H296.982L293.262 54.47H294.402L290.682 65.6ZM306.67 74V51.65H309.85L322.15 68.21L320.5 68.54V51.65H324.58V74H321.37L309.25 57.32L310.75 56.99V74H306.67ZM332.866 74V55.25H327.076V51.65H342.676V55.25H336.976V74H332.866ZM345.166 74V51.65H360.016V55.25H349.246V60.98H359.416V64.58H349.246V70.4H360.016V74H345.166Z" fill="#FFAE00"/>
<path d="M37.33 120L45.04 97.65H50.32L58.03 120H53.59L52 115.2H43.36L41.74 120H37.33ZM44.53 111.6H50.83L47.11 100.47H48.25L44.53 111.6ZM60.5174 120V97.65H63.6974L75.9974 114.21L74.3474 114.54V97.65H78.4274V120H75.2174L63.0974 103.32L64.5974 102.99V120H60.5174ZM86.7138 120V101.25H80.9238V97.65H96.5238V101.25H90.8238V120H86.7138ZM99.0135 120V97.65H103.094V120H99.0135ZM107.392 120V97.65H116.812C118.292 97.65 119.552 97.91 120.592 98.43C121.652 98.93 122.462 99.65 123.022 100.59C123.602 101.51 123.892 102.63 123.892 103.95C123.892 104.97 123.612 105.93 123.052 106.83C122.512 107.71 121.642 108.44 120.442 109.02V107.13C121.542 107.55 122.412 108.07 123.052 108.69C123.692 109.31 124.142 110 124.402 110.76C124.662 111.52 124.792 112.32 124.792 113.16C124.792 115.3 124.082 116.98 122.662 118.2C121.262 119.4 119.312 120 116.812 120H107.392ZM111.472 116.4H117.232C118.292 116.4 119.132 116.11 119.752 115.53C120.392 114.93 120.712 114.14 120.712 113.16C120.712 112.18 120.392 111.39 119.752 110.79C119.132 110.19 118.292 109.89 117.232 109.89H111.472V116.4ZM111.472 106.32H117.022C117.862 106.32 118.532 106.08 119.032 105.6C119.532 105.1 119.782 104.46 119.782 103.68C119.782 102.9 119.532 102.28 119.032 101.82C118.532 101.36 117.862 101.13 117.022 101.13H111.472V106.32ZM128.135 120V97.65H132.215V120H128.135ZM147.524 120.36C145.884 120.36 144.354 120.07 142.934 119.49C141.514 118.91 140.274 118.1 139.214 117.06C138.154 116.02 137.324 114.8 136.724 113.4C136.144 111.98 135.854 110.45 135.854 108.81C135.854 107.15 136.144 105.62 136.724 104.22C137.304 102.82 138.124 101.6 139.184 100.56C140.244 99.52 141.484 98.72 142.904 98.16C144.324 97.58 145.864 97.29 147.524 97.29C149.184 97.29 150.724 97.58 152.144 98.16C153.564 98.74 154.804 99.55 155.864 100.59C156.924 101.61 157.744 102.82 158.324 104.22C158.924 105.62 159.224 107.15 159.224 108.81C159.224 110.45 158.924 111.98 158.324 113.4C157.724 114.8 156.894 116.02 155.834 117.06C154.774 118.1 153.534 118.91 152.114 119.49C150.714 120.07 149.184 120.36 147.524 120.36ZM147.524 116.64C148.624 116.64 149.634 116.45 150.554 116.07C151.474 115.67 152.274 115.12 152.954 114.42C153.654 113.72 154.184 112.89 154.544 111.93C154.924 110.97 155.114 109.93 155.114 108.81C155.114 107.69 154.924 106.66 154.544 105.72C154.184 104.76 153.654 103.93 152.954 103.23C152.274 102.51 151.474 101.96 150.554 101.58C149.634 101.2 148.624 101.01 147.524 101.01C146.444 101.01 145.444 101.2 144.524 101.58C143.604 101.96 142.794 102.51 142.094 103.23C141.414 103.93 140.884 104.76 140.504 105.72C140.124 106.66 139.934 107.69 139.934 108.81C139.934 109.93 140.124 110.97 140.504 111.93C140.884 112.89 141.414 113.72 142.094 114.42C142.794 115.12 143.604 115.67 144.524 116.07C145.444 116.45 146.444 116.64 147.524 116.64ZM145.604 94.74L147.554 89.55H152.654L149.474 94.74H145.604ZM165.903 120V101.25H160.113V97.65H175.713V101.25H170.013V120H165.903ZM178.203 120V97.65H182.283V120H178.203ZM197.082 120.36C195.482 120.36 194.002 120.07 192.642 119.49C191.302 118.91 190.122 118.1 189.102 117.06C188.102 116.02 187.322 114.8 186.762 113.4C186.202 112 185.922 110.47 185.922 108.81C185.922 107.15 186.192 105.62 186.732 104.22C187.292 102.8 188.072 101.58 189.072 100.56C190.092 99.52 191.282 98.72 192.642 98.16C194.002 97.58 195.482 97.29 197.082 97.29C198.682 97.29 200.112 97.56 201.372 98.1C202.652 98.64 203.732 99.36 204.612 100.26C205.492 101.14 206.122 102.11 206.502 103.17L202.842 104.88C202.422 103.76 201.712 102.84 200.712 102.12C199.712 101.38 198.502 101.01 197.082 101.01C195.682 101.01 194.442 101.34 193.362 102C192.302 102.66 191.472 103.57 190.872 104.73C190.292 105.89 190.002 107.25 190.002 108.81C190.002 110.37 190.292 111.74 190.872 112.92C191.472 114.08 192.302 114.99 193.362 115.65C194.442 116.31 195.682 116.64 197.082 116.64C198.502 116.64 199.712 116.28 200.712 115.56C201.712 114.82 202.422 113.89 202.842 112.77L206.502 114.48C206.122 115.54 205.492 116.52 204.612 117.42C203.732 118.3 202.652 119.01 201.372 119.55C200.112 120.09 198.682 120.36 197.082 120.36ZM220.824 120.36C219.184 120.36 217.654 120.07 216.234 119.49C214.814 118.91 213.574 118.1 212.514 117.06C211.454 116.02 210.624 114.8 210.024 113.4C209.444 111.98 209.154 110.45 209.154 108.81C209.154 107.15 209.444 105.62 210.024 104.22C210.604 102.82 211.424 101.6 212.484 100.56C213.544 99.52 214.784 98.72 216.204 98.16C217.624 97.58 219.164 97.29 220.824 97.29C222.484 97.29 224.024 97.58 225.444 98.16C226.864 98.74 228.104 99.55 229.164 100.59C230.224 101.61 231.044 102.82 231.624 104.22C232.224 105.62 232.524 107.15 232.524 108.81C232.524 110.45 232.224 111.98 231.624 113.4C231.024 114.8 230.194 116.02 229.134 117.06C228.074 118.1 226.834 118.91 225.414 119.49C224.014 120.07 222.484 120.36 220.824 120.36ZM220.824 116.64C221.924 116.64 222.934 116.45 223.854 116.07C224.774 115.67 225.574 115.12 226.254 114.42C226.954 113.72 227.484 112.89 227.844 111.93C228.224 110.97 228.414 109.93 228.414 108.81C228.414 107.69 228.224 106.66 227.844 105.72C227.484 104.76 226.954 103.93 226.254 103.23C225.574 102.51 224.774 101.96 223.854 101.58C222.934 101.2 221.924 101.01 220.824 101.01C219.744 101.01 218.744 101.2 217.824 101.58C216.904 101.96 216.094 102.51 215.394 103.23C214.714 103.93 214.184 104.76 213.804 105.72C213.424 106.66 213.234 107.69 213.234 108.81C213.234 109.93 213.424 110.97 213.804 111.93C214.184 112.89 214.714 113.72 215.394 114.42C216.094 115.12 216.904 115.67 217.824 116.07C218.744 116.45 219.744 116.64 220.824 116.64Z" fill="#3AD4FF"/>
<path d="M37.33 166L45.04 143.65H50.32L58.03 166H53.59L52 161.2H43.36L41.74 166H37.33ZM44.53 157.6H50.83L47.11 146.47H48.25L44.53 157.6ZM60.5174 166V143.65H63.6974L75.9974 160.21L74.3474 160.54V143.65H78.4274V166H75.2174L63.0974 149.32L64.5974 148.99V166H60.5174ZM90.7338 166.36C89.3138 166.36 87.9938 166.1 86.7738 165.58C85.5738 165.06 84.5338 164.34 83.6538 163.42C82.7938 162.48 82.1638 161.39 81.7638 160.15L85.1538 158.68C85.6938 159.96 86.4738 160.97 87.4938 161.71C88.5138 162.43 89.6638 162.79 90.9438 162.79C91.6638 162.79 92.2838 162.68 92.8038 162.46C93.3438 162.22 93.7538 161.9 94.0338 161.5C94.3338 161.1 94.4838 160.62 94.4838 160.06C94.4838 159.4 94.2838 158.86 93.8838 158.44C93.5038 158 92.9238 157.66 92.1438 157.42L87.8538 156.04C86.1138 155.5 84.8038 154.69 83.9238 153.61C83.0438 152.53 82.6038 151.26 82.6038 149.8C82.6038 148.52 82.9138 147.39 83.5338 146.41C84.1738 145.43 85.0538 144.67 86.1738 144.13C87.3138 143.57 88.6138 143.29 90.0738 143.29C91.4138 143.29 92.6438 143.53 93.7638 144.01C94.8838 144.47 95.8438 145.12 96.6438 145.96C97.4638 146.78 98.0738 147.75 98.4738 148.87L95.1138 150.37C94.6738 149.25 94.0138 148.39 93.1338 147.79C92.2538 147.17 91.2338 146.86 90.0738 146.86C89.3938 146.86 88.7938 146.98 88.2738 147.22C87.7538 147.44 87.3438 147.76 87.0438 148.18C86.7638 148.58 86.6238 149.06 86.6238 149.62C86.6238 150.24 86.8238 150.79 87.2238 151.27C87.6238 151.73 88.2338 152.09 89.0538 152.35L93.1638 153.64C94.9438 154.22 96.2738 155.02 97.1538 156.04C98.0538 157.06 98.5038 158.32 98.5038 159.82C98.5038 161.1 98.1738 162.23 97.5138 163.21C96.8538 164.19 95.9438 164.96 94.7838 165.52C93.6238 166.08 92.2738 166.36 90.7338 166.36ZM102.178 166V143.65H106.258V166H102.178ZM121.566 166.36C119.926 166.36 118.396 166.07 116.976 165.49C115.556 164.91 114.316 164.1 113.256 163.06C112.196 162.02 111.366 160.8 110.766 159.4C110.186 157.98 109.896 156.45 109.896 154.81C109.896 153.15 110.186 151.62 110.766 150.22C111.346 148.82 112.166 147.6 113.226 146.56C114.286 145.52 115.526 144.72 116.946 144.16C118.366 143.58 119.906 143.29 121.566 143.29C123.226 143.29 124.766 143.58 126.186 144.16C127.606 144.74 128.846 145.55 129.906 146.59C130.966 147.61 131.786 148.82 132.366 150.22C132.966 151.62 133.266 153.15 133.266 154.81C133.266 156.45 132.966 157.98 132.366 159.4C131.766 160.8 130.936 162.02 129.876 163.06C128.816 164.1 127.576 164.91 126.156 165.49C124.756 166.07 123.226 166.36 121.566 166.36ZM121.566 162.64C122.666 162.64 123.676 162.45 124.596 162.07C125.516 161.67 126.316 161.12 126.996 160.42C127.696 159.72 128.226 158.89 128.586 157.93C128.966 156.97 129.156 155.93 129.156 154.81C129.156 153.69 128.966 152.66 128.586 151.72C128.226 150.76 127.696 149.93 126.996 149.23C126.316 148.51 125.516 147.96 124.596 147.58C123.676 147.2 122.666 147.01 121.566 147.01C120.486 147.01 119.486 147.2 118.566 147.58C117.646 147.96 116.836 148.51 116.136 149.23C115.456 149.93 114.926 150.76 114.546 151.72C114.166 152.66 113.976 153.69 113.976 154.81C113.976 155.93 114.166 156.97 114.546 157.93C114.926 158.89 115.456 159.72 116.136 160.42C116.836 161.12 117.646 161.67 118.566 162.07C119.486 162.45 120.486 162.64 121.566 162.64ZM136.894 166V143.65H140.974V162.4H150.544V166H136.894ZM153.183 166V143.65H157.263V166H153.183ZM165.522 166V147.25H159.732V143.65H175.332V147.25H169.632V166H165.522ZM177.822 166V143.65H181.902V166H177.822ZM196.701 166.36C195.101 166.36 193.621 166.07 192.261 165.49C190.921 164.91 189.741 164.1 188.721 163.06C187.721 162.02 186.941 160.8 186.381 159.4C185.821 158 185.541 156.47 185.541 154.81C185.541 153.15 185.811 151.62 186.351 150.22C186.911 148.8 187.691 147.58 188.691 146.56C189.711 145.52 190.901 144.72 192.261 144.16C193.621 143.58 195.101 143.29 196.701 143.29C198.301 143.29 199.731 143.56 200.991 144.1C202.271 144.64 203.351 145.36 204.231 146.26C205.111 147.14 205.741 148.11 206.121 149.17L202.461 150.88C202.041 149.76 201.331 148.84 200.331 148.12C199.331 147.38 198.121 147.01 196.701 147.01C195.301 147.01 194.061 147.34 192.981 148C191.921 148.66 191.091 149.57 190.491 150.73C189.911 151.89 189.621 153.25 189.621 154.81C189.621 156.37 189.911 157.74 190.491 158.92C191.091 160.08 191.921 160.99 192.981 161.65C194.061 162.31 195.301 162.64 196.701 162.64C198.121 162.64 199.331 162.28 200.331 161.56C201.331 160.82 202.041 159.89 202.461 158.77L206.121 160.48C205.741 161.54 205.111 162.52 204.231 163.42C203.351 164.3 202.271 165.01 200.991 165.55C199.731 166.09 198.301 166.36 196.701 166.36ZM220.443 166.36C218.803 166.36 217.273 166.07 215.853 165.49C214.433 164.91 213.193 164.1 212.133 163.06C211.073 162.02 210.243 160.8 209.643 159.4C209.063 157.98 208.773 156.45 208.773 154.81C208.773 153.15 209.063 151.62 209.643 150.22C210.223 148.82 211.043 147.6 212.103 146.56C213.163 145.52 214.403 144.72 215.823 144.16C217.243 143.58 218.783 143.29 220.443 143.29C222.103 143.29 223.643 143.58 225.063 144.16C226.483 144.74 227.723 145.55 228.783 146.59C229.843 147.61 230.663 148.82 231.243 150.22C231.843 151.62 232.143 153.15 232.143 154.81C232.143 156.45 231.843 157.98 231.243 159.4C230.643 160.8 229.813 162.02 228.753 163.06C227.693 164.1 226.453 164.91 225.033 165.49C223.633 166.07 222.103 166.36 220.443 166.36ZM220.443 162.64C221.543 162.64 222.553 162.45 223.473 162.07C224.393 161.67 225.193 161.12 225.873 160.42C226.573 159.72 227.103 158.89 227.463 157.93C227.843 156.97 228.033 155.93 228.033 154.81C228.033 153.69 227.843 152.66 227.463 151.72C227.103 150.76 226.573 149.93 225.873 149.23C225.193 148.51 224.393 147.96 223.473 147.58C222.553 147.2 221.543 147.01 220.443 147.01C219.363 147.01 218.363 147.2 217.443 147.58C216.523 147.96 215.713 148.51 215.013 149.23C214.333 149.93 213.803 150.76 213.423 151.72C213.043 152.66 212.853 153.69 212.853 154.81C212.853 155.93 213.043 156.97 213.423 157.93C213.803 158.89 214.333 159.72 215.013 160.42C215.713 161.12 216.523 161.67 217.443 162.07C218.363 162.45 219.363 162.64 220.443 162.64Z" fill="#EB7F64"/>
<path d="M39.16 212V189.65H43.24V199.4H52.75V189.65H56.86V212H52.75V203H43.24V212H39.16ZM61.162 212V189.65H65.242V212H61.162ZM69.5409 212V189.65H77.8809C79.4009 189.65 80.7409 189.93 81.9009 190.49C83.0809 191.03 84.0009 191.83 84.6609 192.89C85.3209 193.93 85.6509 195.2 85.6509 196.7C85.6509 198.18 85.3109 199.45 84.6309 200.51C83.9709 201.55 83.0609 202.35 81.9009 202.91C80.7409 203.47 79.4009 203.75 77.8809 203.75H73.6209V212H69.5409ZM73.6209 200.15H77.9409C78.6809 200.15 79.3209 200.01 79.8609 199.73C80.4009 199.43 80.8209 199.02 81.1209 198.5C81.4209 197.98 81.5709 197.38 81.5709 196.7C81.5709 196 81.4209 195.4 81.1209 194.9C80.8209 194.38 80.4009 193.98 79.8609 193.7C79.3209 193.4 78.6809 193.25 77.9409 193.25H73.6209V200.15ZM88.994 212V189.65H92.174L104.474 206.21L102.824 206.54V189.65H106.904V212H103.694L91.574 195.32L93.074 194.99V212H88.994ZM122.24 212.36C120.6 212.36 119.07 212.07 117.65 211.49C116.23 210.91 114.99 210.1 113.93 209.06C112.87 208.02 112.04 206.8 111.44 205.4C110.86 203.98 110.57 202.45 110.57 200.81C110.57 199.15 110.86 197.62 111.44 196.22C112.02 194.82 112.84 193.6 113.9 192.56C114.96 191.52 116.2 190.72 117.62 190.16C119.04 189.58 120.58 189.29 122.24 189.29C123.9 189.29 125.44 189.58 126.86 190.16C128.28 190.74 129.52 191.55 130.58 192.59C131.64 193.61 132.46 194.82 133.04 196.22C133.64 197.62 133.94 199.15 133.94 200.81C133.94 202.45 133.64 203.98 133.04 205.4C132.44 206.8 131.61 208.02 130.55 209.06C129.49 210.1 128.25 210.91 126.83 211.49C125.43 212.07 123.9 212.36 122.24 212.36ZM122.24 208.64C123.34 208.64 124.35 208.45 125.27 208.07C126.19 207.67 126.99 207.12 127.67 206.42C128.37 205.72 128.9 204.89 129.26 203.93C129.64 202.97 129.83 201.93 129.83 200.81C129.83 199.69 129.64 198.66 129.26 197.72C128.9 196.76 128.37 195.93 127.67 195.23C126.99 194.51 126.19 193.96 125.27 193.58C124.35 193.2 123.34 193.01 122.24 193.01C121.16 193.01 120.16 193.2 119.24 193.58C118.32 193.96 117.51 194.51 116.81 195.23C116.13 195.93 115.6 196.76 115.22 197.72C114.84 198.66 114.65 199.69 114.65 200.81C114.65 201.93 114.84 202.97 115.22 203.93C115.6 204.89 116.13 205.72 116.81 206.42C117.51 207.12 118.32 207.67 119.24 208.07C120.16 208.45 121.16 208.64 122.24 208.64ZM120.32 186.74L122.27 181.55H127.37L124.19 186.74H120.32ZM140.62 212V193.25H134.83V189.65H150.43V193.25H144.73V212H140.62ZM152.92 212V189.65H157V212H152.92ZM171.799 212.36C170.199 212.36 168.719 212.07 167.359 211.49C166.019 210.91 164.839 210.1 163.819 209.06C162.819 208.02 162.039 206.8 161.479 205.4C160.919 204 160.639 202.47 160.639 200.81C160.639 199.15 160.909 197.62 161.449 196.22C162.009 194.8 162.789 193.58 163.789 192.56C164.809 191.52 165.999 190.72 167.359 190.16C168.719 189.58 170.199 189.29 171.799 189.29C173.399 189.29 174.829 189.56 176.089 190.1C177.369 190.64 178.449 191.36 179.329 192.26C180.209 193.14 180.839 194.11 181.219 195.17L177.559 196.88C177.139 195.76 176.429 194.84 175.429 194.12C174.429 193.38 173.219 193.01 171.799 193.01C170.399 193.01 169.159 193.34 168.079 194C167.019 194.66 166.189 195.57 165.589 196.73C165.009 197.89 164.719 199.25 164.719 200.81C164.719 202.37 165.009 203.74 165.589 204.92C166.189 206.08 167.019 206.99 168.079 207.65C169.159 208.31 170.399 208.64 171.799 208.64C173.219 208.64 174.429 208.28 175.429 207.56C176.429 206.82 177.139 205.89 177.559 204.77L181.219 206.48C180.839 207.54 180.209 208.52 179.329 209.42C178.449 210.3 177.369 211.01 176.089 211.55C174.829 212.09 173.399 212.36 171.799 212.36ZM195.541 212.36C193.901 212.36 192.371 212.07 190.951 211.49C189.531 210.91 188.291 210.1 187.231 209.06C186.171 208.02 185.341 206.8 184.741 205.4C184.161 203.98 183.871 202.45 183.871 200.81C183.871 199.15 184.161 197.62 184.741 196.22C185.321 194.82 186.141 193.6 187.201 192.56C188.261 191.52 189.501 190.72 190.921 190.16C192.341 189.58 193.881 189.29 195.541 189.29C197.201 189.29 198.741 189.58 200.161 190.16C201.581 190.74 202.821 191.55 203.881 192.59C204.941 193.61 205.761 194.82 206.341 196.22C206.941 197.62 207.241 199.15 207.241 200.81C207.241 202.45 206.941 203.98 206.341 205.4C205.741 206.8 204.911 208.02 203.851 209.06C202.791 210.1 201.551 210.91 200.131 211.49C198.731 212.07 197.201 212.36 195.541 212.36ZM195.541 208.64C196.641 208.64 197.651 208.45 198.571 208.07C199.491 207.67 200.291 207.12 200.971 206.42C201.671 205.72 202.201 204.89 202.561 203.93C202.941 202.97 203.131 201.93 203.131 200.81C203.131 199.69 202.941 198.66 202.561 197.72C202.201 196.76 201.671 195.93 200.971 195.23C200.291 194.51 199.491 193.96 198.571 193.58C197.651 193.2 196.641 193.01 195.541 193.01C194.461 193.01 193.461 193.2 192.541 193.58C191.621 193.96 190.811 194.51 190.111 195.23C189.431 195.93 188.901 196.76 188.521 197.72C188.141 198.66 187.951 199.69 187.951 200.81C187.951 201.93 188.141 202.97 188.521 203.93C188.901 204.89 189.431 205.72 190.111 206.42C190.811 207.12 191.621 207.67 192.541 208.07C193.461 208.45 194.461 208.64 195.541 208.64Z" fill="#E0BF05"/>
<path d="M50.17 258.36C48.53 258.36 47 258.07 45.58 257.49C44.16 256.91 42.92 256.1 41.86 255.06C40.8 254.02 39.97 252.8 39.37 251.4C38.79 249.98 38.5 248.45 38.5 246.81C38.5 245.15 38.79 243.62 39.37 242.22C39.95 240.82 40.77 239.6 41.83 238.56C42.89 237.52 44.13 236.72 45.55 236.16C46.97 235.58 48.51 235.29 50.17 235.29C51.83 235.29 53.37 235.58 54.79 236.16C56.21 236.74 57.45 237.55 58.51 238.59C59.57 239.61 60.39 240.82 60.97 242.22C61.57 243.62 61.87 245.15 61.87 246.81C61.87 248.45 61.57 249.98 60.97 251.4C60.37 252.8 59.54 254.02 58.48 255.06C57.42 256.1 56.18 256.91 54.76 257.49C53.36 258.07 51.83 258.36 50.17 258.36ZM50.17 254.64C51.27 254.64 52.28 254.45 53.2 254.07C54.12 253.67 54.92 253.12 55.6 252.42C56.3 251.72 56.83 250.89 57.19 249.93C57.57 248.97 57.76 247.93 57.76 246.81C57.76 245.69 57.57 244.66 57.19 243.72C56.83 242.76 56.3 241.93 55.6 241.23C54.92 240.51 54.12 239.96 53.2 239.58C52.28 239.2 51.27 239.01 50.17 239.01C49.09 239.01 48.09 239.2 47.17 239.58C46.25 239.96 45.44 240.51 44.74 241.23C44.06 241.93 43.53 242.76 43.15 243.72C42.77 244.66 42.58 245.69 42.58 246.81C42.58 247.93 42.77 248.97 43.15 249.93C43.53 250.89 44.06 251.72 44.74 252.42C45.44 253.12 46.25 253.67 47.17 254.07C48.09 254.45 49.09 254.64 50.17 254.64ZM65.4979 258V235.65H73.8379C75.3579 235.65 76.6979 235.93 77.8579 236.49C79.0379 237.03 79.9579 237.83 80.6179 238.89C81.2779 239.93 81.6079 241.2 81.6079 242.7C81.6079 244.18 81.2679 245.45 80.5879 246.51C79.9279 247.55 79.0179 248.35 77.8579 248.91C76.6979 249.47 75.3579 249.75 73.8379 249.75H69.5779V258H65.4979ZM69.5779 246.15H73.8979C74.6379 246.15 75.2779 246.01 75.8179 245.73C76.3579 245.43 76.7779 245.02 77.0779 244.5C77.3779 243.98 77.5279 243.38 77.5279 242.7C77.5279 242 77.3779 241.4 77.0779 240.9C76.7779 240.38 76.3579 239.98 75.8179 239.7C75.2779 239.4 74.6379 239.25 73.8979 239.25H69.5779V246.15ZM84.951 258V235.65H89.031V258H84.951ZM104.34 258.36C102.7 258.36 101.17 258.07 99.7499 257.49C98.3299 256.91 97.0899 256.1 96.0299 255.06C94.9699 254.02 94.1399 252.8 93.5399 251.4C92.9599 249.98 92.6699 248.45 92.6699 246.81C92.6699 245.15 92.9599 243.62 93.5399 242.22C94.1199 240.82 94.9399 239.6 95.9999 238.56C97.0599 237.52 98.2999 236.72 99.7199 236.16C101.14 235.58 102.68 235.29 104.34 235.29C106 235.29 107.54 235.58 108.96 236.16C110.38 236.74 111.62 237.55 112.68 238.59C113.74 239.61 114.56 240.82 115.14 242.22C115.74 243.62 116.04 245.15 116.04 246.81C116.04 248.45 115.74 249.98 115.14 251.4C114.54 252.8 113.71 254.02 112.65 255.06C111.59 256.1 110.35 256.91 108.93 257.49C107.53 258.07 106 258.36 104.34 258.36ZM104.34 254.64C105.44 254.64 106.45 254.45 107.37 254.07C108.29 253.67 109.09 253.12 109.77 252.42C110.47 251.72 111 250.89 111.36 249.93C111.74 248.97 111.93 247.93 111.93 246.81C111.93 245.69 111.74 244.66 111.36 243.72C111 242.76 110.47 241.93 109.77 241.23C109.09 240.51 108.29 239.96 107.37 239.58C106.45 239.2 105.44 239.01 104.34 239.01C103.26 239.01 102.26 239.2 101.34 239.58C100.42 239.96 99.6099 240.51 98.9099 241.23C98.2299 241.93 97.6999 242.76 97.3199 243.72C96.9399 244.66 96.7499 245.69 96.7499 246.81C96.7499 247.93 96.9399 248.97 97.3199 249.93C97.6999 250.89 98.2299 251.72 98.9099 252.42C99.6099 253.12 100.42 253.67 101.34 254.07C102.26 254.45 103.26 254.64 104.34 254.64ZM119.668 258V235.65H123.748V258H119.668ZM128.047 258V235.65H135.337C137.697 235.65 139.747 236.13 141.487 237.09C143.247 238.03 144.607 239.34 145.567 241.02C146.527 242.68 147.007 244.61 147.007 246.81C147.007 248.99 146.527 250.93 145.567 252.63C144.607 254.31 143.247 255.63 141.487 256.59C139.747 257.53 137.697 258 135.337 258H128.047ZM132.127 254.4H135.427C136.947 254.4 138.257 254.09 139.357 253.47C140.477 252.83 141.347 251.95 141.967 250.83C142.587 249.69 142.897 248.35 142.897 246.81C142.897 245.25 142.587 243.91 141.967 242.79C141.347 241.67 140.477 240.8 139.357 240.18C138.257 239.56 136.947 239.25 135.427 239.25H132.127V254.4ZM150.254 258V235.65H165.104V239.25H154.334V244.98H164.504V248.58H154.334V254.4H165.104V258H150.254Z" fill="#034833"/>
</svg>
