<svg width="74" height="74" viewBox="0 0 74 74" fill="none" xmlns="http://www.w3.org/2000/svg">
<path d="M4.41221e-07 37C6.849e-07 57.4345 16.5655 74 37 74C57.4345 74 74 57.4345 74 37C74 16.5655 57.4345 1.97541e-07 37 4.41221e-07C16.5655 6.849e-07 1.97541e-07 16.5655 4.41221e-07 37Z" fill="#83CD20"/>
<path d="M35.6016 45.1094L29.3516 38.8594C29.1172 38.625 29 38.3125 29 38C29 37.6484 29.1172 37.3359 29.3516 37.1016C29.8203 36.5938 30.6406 36.5938 31.1094 37.1016L35.25 41.2031L35.25 29.25C35.25 28.5469 35.7969 28 36.5 28C37.1641 28 37.75 28.5469 37.75 29.25L37.75 41.2031L41.8516 37.1016C42.3203 36.5938 43.1406 36.5938 43.6094 37.1016C44.1172 37.5703 44.1172 38.3906 43.6094 38.8594L37.3594 45.1094C36.8906 45.6172 36.0703 45.6172 35.6016 45.1094Z" fill="white"/>
</svg>
